<svg width="88" height="37" viewBox="0 0 88 37" fill="none" xmlns="http://www.w3.org/2000/svg">
<ellipse cx="69.7447" cy="22.4836" rx="17.8379" ry="11.8406" transform="rotate(-0.955211 69.7447 22.4836)" fill="#C2D5E7"/>
<ellipse cx="69.7253" cy="21.3234" rx="17.8379" ry="10.4204" transform="rotate(-0.955211 69.7253 21.3234)" fill="#3C5458" style="mix-blend-mode:overlay"/>
<g filter="url(#filter0_i_1_28)">
<ellipse cx="27.6534" cy="21.8946" rx="26.6398" ry="11.9944" transform="rotate(-0.10813 27.6534 21.8946)" fill="#969696" fill-opacity="0.4"/>
<path d="M54.1865 20.6934C55.1865 26.1934 42.3822 30.4346 27.6695 30.4624C12.9568 30.4901 0.983454 26.4253 0.972629 20.6891C1.97263 14.6891 14.4726 9.68989 27.6303 9.68989C44.0423 10.5812 52.6504 14.9013 54.1865 20.6934Z" fill="#AAAAAA" style="mix-blend-mode:overlay"/>
</g>
<ellipse cx="49.6725" cy="18.7811" rx="17.8379" ry="11.8406" transform="rotate(23.0586 49.6725 18.7811)" fill="#C2D5E7" fill-opacity="0.49"/>
<ellipse cx="50.1268" cy="17.7135" rx="17.8379" ry="10.4204" transform="rotate(23.0586 50.1268 17.7135)" fill="#3C5458" style="mix-blend-mode:overlay"/>
<path d="M6.68578 25.4377C6.5437 25.4377 6.47266 25.3993 6.47266 25.3225C6.47266 25.2527 6.53778 25.2109 6.66802 25.1969L6.91667 25.176C7.16531 25.155 7.34884 25.1131 7.46724 25.0503C7.58564 24.9875 7.64485 24.8828 7.64485 24.7362V18.7362C7.64485 18.6105 7.60932 18.5232 7.53828 18.4744C7.47908 18.4255 7.3666 18.3976 7.20083 18.3906L6.79234 18.3592C6.6621 18.3452 6.59698 18.3034 6.59698 18.2335C6.59698 18.1637 6.6621 18.1219 6.79234 18.1079C7.12387 18.066 7.40804 18.0171 7.64485 17.9613C7.88165 17.9054 8.07702 17.8496 8.23094 17.7938C8.42039 17.7239 8.56247 17.689 8.65719 17.689C8.78743 17.689 8.85256 17.7449 8.85256 17.8566V24.7362C8.85256 24.8828 8.88808 24.9875 8.95912 25.0503C9.042 25.1061 9.20777 25.1445 9.45641 25.1655L9.8649 25.1969C9.99514 25.2109 10.0603 25.2527 10.0603 25.3225C10.0603 25.3993 9.98922 25.4377 9.84714 25.4377H6.68578Z" fill="black" style="mix-blend-mode:overlay"/>
<path d="M13.8384 25.532C13.2345 25.532 12.6899 25.4133 12.2044 25.176C11.7308 24.9316 11.3519 24.6 11.0678 24.1812C10.7836 23.7623 10.6415 23.2946 10.6415 22.778C10.6415 22.2615 10.7836 21.7972 11.0678 21.3854C11.3519 20.9735 11.7367 20.6454 12.2222 20.4011C12.7076 20.1568 13.2464 20.0346 13.8384 20.0346C14.4422 20.0346 14.981 20.1568 15.4546 20.4011C15.94 20.6454 16.3248 20.9735 16.609 21.3854C16.8932 21.7972 17.0353 22.2615 17.0353 22.778C17.0353 23.2946 16.8932 23.7623 16.609 24.1812C16.3367 24.6 15.9578 24.9316 15.4723 25.176C14.9869 25.4133 14.4422 25.532 13.8384 25.532ZM13.8384 25.2702C15.0698 25.2702 15.6855 24.4395 15.6855 22.778C15.6855 21.1236 15.0698 20.2964 13.8384 20.2964C12.607 20.2964 11.9913 21.1236 11.9913 22.778C11.9913 24.4395 12.607 25.2702 13.8384 25.2702Z" fill="black" style="mix-blend-mode:overlay"/>
<path d="M21.0883 25.532C20.4844 25.532 19.9397 25.4133 19.4543 25.176C18.9807 24.9316 18.6018 24.6 18.3176 24.1812C18.0335 23.7623 17.8914 23.2946 17.8914 22.778C17.8914 22.2615 18.0335 21.7972 18.3176 21.3854C18.6018 20.9735 18.9866 20.6454 19.4721 20.4011C19.9575 20.1568 20.4962 20.0346 21.0883 20.0346C21.6921 20.0346 22.2308 20.1568 22.7045 20.4011C23.1899 20.6454 23.5747 20.9735 23.8589 21.3854C24.1431 21.7972 24.2851 22.2615 24.2851 22.778C24.2851 23.2946 24.1431 23.7623 23.8589 24.1812C23.5866 24.6 23.2077 24.9316 22.7222 25.176C22.2368 25.4133 21.6921 25.532 21.0883 25.532ZM21.0883 25.2702C22.3196 25.2702 22.9353 24.4395 22.9353 22.778C22.9353 21.1236 22.3196 20.2964 21.0883 20.2964C19.8569 20.2964 19.2412 21.1236 19.2412 22.778C19.2412 24.4395 19.8569 25.2702 21.0883 25.2702Z" fill="black" style="mix-blend-mode:overlay"/>
<path d="M25.2123 25.4377C25.0702 25.4377 24.9992 25.3993 24.9992 25.3225C24.9992 25.2527 25.0643 25.2109 25.1945 25.1969L25.4432 25.176C25.6918 25.155 25.8517 25.1131 25.9227 25.0503C26.0056 24.9875 26.047 24.8828 26.047 24.7362V18.7362C26.047 18.6105 26.0115 18.5267 25.9405 18.4849C25.8813 18.436 25.7688 18.4046 25.603 18.3906L25.23 18.3592C25.0998 18.3452 25.0347 18.3034 25.0347 18.2335C25.0347 18.1637 25.0998 18.1219 25.23 18.1079C25.5616 18.066 25.8398 18.0171 26.0648 17.9613C26.2898 17.9054 26.4792 17.8496 26.6331 17.7938C26.8226 17.7239 26.9647 17.689 27.0594 17.689C27.1896 17.689 27.2547 17.7449 27.2547 17.8566V22.244C27.2547 22.3138 27.3021 22.3592 27.3968 22.3801C27.5034 22.3941 27.604 22.3697 27.6987 22.3068L29.7767 20.9875C30.0254 20.8269 30.126 20.6943 30.0786 20.5896C30.0431 20.4779 29.907 20.4081 29.6702 20.3801L29.2617 20.3383C29.1077 20.3173 29.0308 20.2719 29.0308 20.2021C29.0308 20.1323 29.1137 20.0974 29.2794 20.0974H32.3342C32.5 20.0974 32.5829 20.1358 32.5829 20.2126C32.5829 20.2894 32.5059 20.3313 32.352 20.3383L32.1921 20.3487C31.9198 20.3627 31.6475 20.4255 31.3752 20.5372C31.1028 20.6419 30.7772 20.8095 30.3983 21.0398L29.2972 21.7309C29.0485 21.8915 28.9893 22.0486 29.1196 22.2021L31.3574 24.7362C31.4876 24.8758 31.6297 24.977 31.7837 25.0398C31.9376 25.1027 32.127 25.148 32.352 25.176L32.5296 25.1969C32.6717 25.2178 32.7427 25.2597 32.7427 25.3225C32.7427 25.3993 32.6598 25.4377 32.4941 25.4377H29.4038C29.238 25.4377 29.1551 25.3993 29.1551 25.3225C29.1551 25.2527 29.2321 25.2109 29.386 25.1969L29.6879 25.176C30.1379 25.141 30.2326 24.97 29.9721 24.6629L28.2848 22.7257C28.2256 22.6559 28.1368 22.6175 28.0184 22.6105C27.9119 22.6035 27.8112 22.628 27.7165 22.6838L27.5211 22.799C27.4146 22.8618 27.3435 22.9246 27.308 22.9875C27.2725 23.0503 27.2547 23.1201 27.2547 23.1969V24.7362C27.2547 24.8828 27.2903 24.9875 27.3613 25.0503C27.4442 25.1131 27.6099 25.1515 27.8586 25.1655L28.3381 25.1969C28.4684 25.2109 28.5335 25.2527 28.5335 25.3225C28.5335 25.3993 28.4624 25.4377 28.3204 25.4377H25.2123Z" fill="black" style="mix-blend-mode:overlay"/>
<path d="M34.4583 19.1027C34.2096 19.1027 33.9965 19.0503 33.8189 18.9456C33.6531 18.8409 33.5702 18.7082 33.5702 18.5477C33.5702 18.3871 33.6531 18.258 33.8189 18.1602C33.9965 18.0555 34.2096 18.0032 34.4583 18.0032C34.7069 18.0032 34.9141 18.0555 35.0799 18.1602C35.2456 18.258 35.3285 18.3871 35.3285 18.5477C35.3285 18.7082 35.2456 18.8409 35.0799 18.9456C34.9141 19.0503 34.7069 19.1027 34.4583 19.1027ZM32.9664 25.4377C32.7888 25.4377 32.7 25.3993 32.7 25.3225C32.7 25.2597 32.7769 25.2178 32.9309 25.1969L33.144 25.176C33.44 25.148 33.6294 25.1061 33.7123 25.0503C33.7952 24.9875 33.8366 24.8828 33.8366 24.7362V21.2178C33.8366 21.0922 33.8011 21.0084 33.7301 20.9665C33.6709 20.9177 33.5584 20.8862 33.3926 20.8723L33.0197 20.8409C32.8657 20.8339 32.7888 20.7955 32.7888 20.7257C32.7888 20.6698 32.8835 20.6314 33.0729 20.6105C33.44 20.5756 33.736 20.5198 33.961 20.443C34.1859 20.3662 34.405 20.2719 34.6181 20.1602C34.7247 20.0974 34.8135 20.066 34.8845 20.066C34.9911 20.066 35.0444 20.1079 35.0444 20.1917V24.7362C35.0444 24.8828 35.0799 24.9875 35.1509 25.0503C35.222 25.1131 35.3581 25.1515 35.5594 25.1655L36.0034 25.1969C36.1337 25.2109 36.1988 25.2493 36.1988 25.3121C36.1988 25.3958 36.11 25.4377 35.9324 25.4377H32.9664Z" fill="black" style="mix-blend-mode:overlay"/>
<path d="M36.9209 25.4377C36.7433 25.4377 36.6545 25.3993 36.6545 25.3225C36.6545 25.2597 36.7314 25.2178 36.8853 25.1969L37.0985 25.176C37.3471 25.148 37.507 25.1061 37.578 25.0503C37.6609 24.9875 37.7023 24.8828 37.7023 24.7362V21.2178C37.7023 21.0922 37.6668 21.0084 37.5958 20.9665C37.5366 20.9177 37.4241 20.8862 37.2583 20.8723L36.8853 20.8409C36.7314 20.8339 36.6545 20.7955 36.6545 20.7257C36.6545 20.6698 36.7492 20.6314 36.9386 20.6105C37.3057 20.5756 37.5839 20.5198 37.7734 20.443C37.9746 20.3662 38.1819 20.2719 38.395 20.1602C38.5015 20.0974 38.5903 20.066 38.6614 20.066C38.7679 20.066 38.8212 20.1079 38.8212 20.1917V20.6629C38.8212 20.7257 38.8568 20.7676 38.9278 20.7885C39.0107 20.8025 39.0995 20.7815 39.1942 20.7257C39.6678 20.4604 40.0822 20.2789 40.4374 20.1812C40.8045 20.0835 41.1893 20.0346 41.5919 20.0346C42.1247 20.0346 42.5509 20.1463 42.8706 20.3697C43.1903 20.5861 43.3501 20.9072 43.3501 21.333V24.7362C43.3501 24.8828 43.3857 24.9875 43.4567 25.0503C43.5396 25.1061 43.7054 25.1445 43.954 25.1655L44.3447 25.1969C44.475 25.2109 44.5401 25.2527 44.5401 25.3225C44.5401 25.3993 44.4691 25.4377 44.327 25.4377H41.3432C41.1774 25.4377 41.0946 25.3993 41.0946 25.3225C41.0946 25.2527 41.1597 25.2109 41.2899 25.1969L41.5386 25.176C41.7872 25.155 41.9471 25.1131 42.0181 25.0503C42.101 24.9875 42.1424 24.8828 42.1424 24.7362V21.4482C42.1424 21.1061 42.0359 20.8653 41.8227 20.7257C41.6096 20.5861 41.3077 20.5163 40.917 20.5163C40.5381 20.5163 40.1947 20.5826 39.8869 20.7152C39.5908 20.8409 39.354 21.0119 39.1764 21.2283C38.9988 21.4377 38.91 21.6716 38.91 21.9299V24.7362C38.91 24.8828 38.9456 24.9875 39.0166 25.0503C39.0995 25.1131 39.2652 25.1515 39.5139 25.1655L39.9934 25.1969C40.1237 25.2109 40.1888 25.2493 40.1888 25.3121C40.1888 25.3958 40.1 25.4377 39.9224 25.4377H36.9209Z" fill="black" style="mix-blend-mode:overlay"/>
<path d="M47.892 27.689C46.9921 27.689 46.2817 27.5808 45.7607 27.3644C45.2397 27.155 44.9792 26.9002 44.9792 26.6C44.9792 26.4744 45.0088 26.3592 45.068 26.2545C45.1272 26.1568 45.2516 26.0416 45.441 25.9089C45.6423 25.7763 45.9442 25.6053 46.3468 25.3958C46.4889 25.3191 46.5599 25.2493 46.5599 25.1864C46.5599 25.1166 46.4889 25.0643 46.3468 25.0294C45.9206 24.9246 45.666 24.792 45.5831 24.6314C45.5002 24.4639 45.6009 24.3103 45.885 24.1707L47.1638 23.5215C47.3059 23.4517 47.2999 23.3924 47.146 23.3435C46.6606 23.2039 46.2758 22.9875 45.9916 22.6943C45.7074 22.4011 45.5653 22.0869 45.5653 21.7519C45.5653 21.4308 45.6837 21.141 45.9206 20.8828C46.1574 20.6245 46.477 20.4185 46.8796 20.265C47.2822 20.1114 47.7321 20.0346 48.2294 20.0346C48.5136 20.0346 48.7859 20.0625 49.0464 20.1184C49.2122 20.1533 49.3128 20.1219 49.3483 20.0241C49.4549 19.7588 49.6502 19.5529 49.9344 19.4063C50.2304 19.2527 50.5205 19.176 50.8047 19.176C51.077 19.176 51.296 19.2248 51.4618 19.3225C51.6394 19.4133 51.7282 19.5285 51.7282 19.6681C51.7282 19.7868 51.669 19.881 51.5506 19.9508C51.4322 20.0206 51.2842 20.0555 51.1066 20.0555C50.9527 20.0555 50.8402 20.0381 50.7692 20.0032C50.6981 19.9683 50.633 19.9334 50.5738 19.8985C50.5146 19.8636 50.4199 19.8461 50.2896 19.8461C50.0055 19.8461 49.8279 19.9369 49.7568 20.1184C49.7213 20.1882 49.7213 20.2475 49.7568 20.2964C49.8042 20.3452 49.8693 20.3941 49.9522 20.443C50.2363 20.6035 50.4554 20.799 50.6093 21.0294C50.7751 21.2597 50.858 21.5145 50.858 21.7938C50.858 22.1288 50.7395 22.429 50.5027 22.6943C50.2778 22.9595 49.964 23.169 49.5614 23.3225C49.1707 23.4761 48.7267 23.5529 48.2294 23.5529C48.0163 23.5529 47.8328 23.5808 47.6788 23.6367C47.5249 23.6856 47.371 23.7588 47.2171 23.8566L46.9151 24.0555C46.7612 24.1672 46.7139 24.2754 46.7731 24.3801C46.8441 24.4779 47.0099 24.5267 47.2703 24.5267H48.7977C49.6502 24.5267 50.3251 24.6524 50.8224 24.9037C51.3197 25.148 51.5684 25.4866 51.5684 25.9194C51.5684 26.2615 51.4026 26.5651 51.0711 26.8304C50.7396 27.0957 50.2955 27.3051 49.739 27.4587C49.1944 27.6123 48.5787 27.689 47.892 27.689ZM48.2116 23.2911C48.6379 23.2911 48.9753 23.155 49.224 22.8828C49.4726 22.6105 49.597 22.2405 49.597 21.7728C49.597 21.3191 49.4667 20.9561 49.2062 20.6838C48.9576 20.4046 48.6261 20.265 48.2116 20.265C47.7972 20.265 47.4598 20.4046 47.1993 20.6838C46.9507 20.9561 46.8263 21.3191 46.8263 21.7728C46.8263 22.2405 46.9507 22.6105 47.1993 22.8828C47.4479 23.155 47.7854 23.2911 48.2116 23.2911ZM48.1051 27.4587C48.5313 27.4587 48.9221 27.4028 49.2773 27.2911C49.6325 27.1794 49.9107 27.0224 50.112 26.8199C50.3251 26.6245 50.4317 26.4011 50.4317 26.1498C50.4317 25.8356 50.2719 25.5948 49.9522 25.4273C49.6443 25.2527 49.2062 25.1655 48.6379 25.1655H48.2294C47.8624 25.1655 47.5841 25.1864 47.3947 25.2283C47.2171 25.2702 47.0454 25.3435 46.8796 25.4482C46.5126 25.6786 46.2817 25.8636 46.187 26.0032C46.0922 26.1428 46.0449 26.2859 46.0449 26.4325C46.0449 26.7397 46.2225 26.9875 46.5777 27.176C46.9447 27.3644 47.4539 27.4587 48.1051 27.4587Z" fill="black" style="mix-blend-mode:overlay"/>
<path d="M58.0557 27.689C57.1558 27.689 56.4454 27.5808 55.9244 27.3644C55.4034 27.155 55.1429 26.9002 55.1429 26.6C55.1429 26.4744 55.1725 26.3592 55.2317 26.2545C55.2909 26.1568 55.4153 26.0416 55.6047 25.9089C55.806 25.7763 56.1079 25.6053 56.5105 25.3958C56.6526 25.3191 56.7236 25.2493 56.7236 25.1864C56.7236 25.1166 56.6526 25.0643 56.5105 25.0294C56.0842 24.9246 55.8297 24.792 55.7468 24.6314C55.6639 24.4639 55.7646 24.3103 56.0487 24.1707L57.3275 23.5215C57.4696 23.4517 57.4636 23.3924 57.3097 23.3435C56.8243 23.2039 56.4395 22.9875 56.1553 22.6943C55.8711 22.4011 55.729 22.0869 55.729 21.7519C55.729 21.4308 55.8474 21.141 56.0842 20.8828C56.321 20.6245 56.6407 20.4185 57.0433 20.265C57.4459 20.1114 57.8958 20.0346 58.3931 20.0346C58.6773 20.0346 58.9496 20.0625 59.2101 20.1184C59.3758 20.1533 59.4765 20.1219 59.512 20.0241C59.6186 19.7588 59.8139 19.5529 60.0981 19.4063C60.3941 19.2527 60.6842 19.176 60.9684 19.176C61.2407 19.176 61.4597 19.2248 61.6255 19.3225C61.8031 19.4133 61.8919 19.5285 61.8919 19.6681C61.8919 19.7868 61.8327 19.881 61.7143 19.9508C61.5959 20.0206 61.4479 20.0555 61.2703 20.0555C61.1164 20.0555 61.0039 20.0381 60.9328 20.0032C60.8618 19.9683 60.7967 19.9334 60.7375 19.8985C60.6783 19.8636 60.5836 19.8461 60.4533 19.8461C60.1691 19.8461 59.9915 19.9369 59.9205 20.1184C59.885 20.1882 59.885 20.2475 59.9205 20.2964C59.9679 20.3452 60.033 20.3941 60.1159 20.443C60.4 20.6035 60.6191 20.799 60.773 21.0294C60.9388 21.2597 61.0216 21.5145 61.0216 21.7938C61.0216 22.1288 60.9032 22.429 60.6664 22.6943C60.4415 22.9595 60.1277 23.169 59.7251 23.3225C59.3344 23.4761 58.8904 23.5529 58.3931 23.5529C58.18 23.5529 57.9965 23.5808 57.8425 23.6367C57.6886 23.6856 57.5347 23.7588 57.3808 23.8566L57.0788 24.0555C56.9249 24.1672 56.8775 24.2754 56.9367 24.3801C57.0078 24.4779 57.1735 24.5267 57.434 24.5267H58.9614C59.8139 24.5267 60.4888 24.6524 60.9861 24.9037C61.4834 25.148 61.7321 25.4866 61.7321 25.9194C61.7321 26.2615 61.5663 26.5651 61.2348 26.8304C60.9032 27.0957 60.4592 27.3051 59.9027 27.4587C59.3581 27.6123 58.7424 27.689 58.0557 27.689ZM58.3753 23.2911C58.8016 23.2911 59.139 23.155 59.3877 22.8828C59.6363 22.6105 59.7607 22.2405 59.7607 21.7728C59.7607 21.3191 59.6304 20.9561 59.3699 20.6838C59.1213 20.4046 58.7897 20.265 58.3753 20.265C57.9609 20.265 57.6235 20.4046 57.363 20.6838C57.1143 20.9561 56.99 21.3191 56.99 21.7728C56.99 22.2405 57.1143 22.6105 57.363 22.8828C57.6116 23.155 57.9491 23.2911 58.3753 23.2911ZM58.2688 27.4587C58.695 27.4587 59.0858 27.4028 59.441 27.2911C59.7962 27.1794 60.0744 27.0224 60.2757 26.8199C60.4888 26.6245 60.5954 26.4011 60.5954 26.1498C60.5954 25.8356 60.4356 25.5948 60.1159 25.4273C59.808 25.2527 59.3699 25.1655 58.8016 25.1655H58.3931C58.0261 25.1655 57.7478 25.1864 57.5584 25.2283C57.3808 25.2702 57.2091 25.3435 57.0433 25.4482C56.6763 25.6786 56.4454 25.8636 56.3507 26.0032C56.2559 26.1428 56.2086 26.2859 56.2086 26.4325C56.2086 26.7397 56.3862 26.9875 56.7414 27.176C57.1084 27.3644 57.6176 27.4587 58.2688 27.4587Z" fill="black" style="mix-blend-mode:overlay"/>
<path d="M62.3953 25.4377C62.2532 25.4377 62.1822 25.3993 62.1822 25.3225C62.1822 25.2527 62.2473 25.2109 62.3775 25.1969L62.6262 25.176C62.8748 25.155 63.0584 25.1131 63.1768 25.0503C63.2952 24.9875 63.3544 24.8828 63.3544 24.7362V18.7362C63.3544 18.6105 63.3188 18.5232 63.2478 18.4744C63.1886 18.4255 63.0761 18.3976 62.9104 18.3906L62.5019 18.3592C62.3716 18.3452 62.3065 18.3034 62.3065 18.2335C62.3065 18.1637 62.3716 18.1219 62.5019 18.1079C62.8334 18.066 63.1176 18.0171 63.3544 17.9613C63.5912 17.9054 63.7865 17.8496 63.9405 17.7938C64.1299 17.7239 64.272 17.689 64.3667 17.689C64.497 17.689 64.5621 17.7449 64.5621 17.8566V24.7362C64.5621 24.8828 64.5976 24.9875 64.6686 25.0503C64.7515 25.1061 64.9173 25.1445 65.1659 25.1655L65.5744 25.1969C65.7047 25.2109 65.7698 25.2527 65.7698 25.3225C65.7698 25.3993 65.6987 25.4377 65.5567 25.4377H62.3953Z" fill="black" style="mix-blend-mode:overlay"/>
<path d="M68.0738 25.532C67.5765 25.532 67.168 25.4412 66.8483 25.2597C66.5286 25.0712 66.3688 24.8234 66.3688 24.5163C66.3688 24.2161 66.5286 23.9334 66.8483 23.6681C67.168 23.3958 67.6061 23.1515 68.1626 22.9351C68.7191 22.7187 69.3525 22.5442 70.063 22.4116C70.2169 22.3836 70.2938 22.3243 70.2938 22.2335V21.2807C70.2938 20.9456 70.2051 20.7082 70.0274 20.5686C69.8498 20.422 69.6071 20.3487 69.2993 20.3487C69.0033 20.3487 68.7309 20.429 68.4823 20.5896C68.2455 20.7431 68.0738 21.0049 67.9672 21.3749C67.908 21.5983 67.7778 21.7623 67.5765 21.8671C67.3871 21.9648 67.1917 22.0136 66.9904 22.0136C66.6589 22.0136 66.4931 21.9159 66.4931 21.7205C66.4931 21.518 66.5878 21.3191 66.7773 21.1236C66.9786 20.9212 67.2391 20.7397 67.5587 20.5791C67.8784 20.4116 68.2277 20.2789 68.6066 20.1812C68.9855 20.0835 69.3644 20.0346 69.7433 20.0346C70.9155 20.0346 71.5016 20.436 71.5016 21.2388V24.443C71.5016 24.7362 71.6259 24.8828 71.8745 24.8828C72.0285 24.8828 72.1705 24.8234 72.3008 24.7047C72.431 24.5791 72.4961 24.3697 72.4961 24.0765C72.4961 23.9648 72.5731 23.9089 72.727 23.9089C72.8691 23.9089 72.9402 23.9683 72.9402 24.0869C72.9402 24.5965 72.7862 24.9665 72.4784 25.1969C72.1824 25.4203 71.8449 25.532 71.466 25.532C71.1819 25.532 70.9569 25.4657 70.7911 25.333C70.6254 25.1934 70.5129 25.0294 70.4537 24.8409C70.4419 24.7711 70.3886 24.7362 70.2938 24.7362C70.211 24.7292 70.1281 24.7606 70.0452 24.8304C69.761 25.0608 69.471 25.2353 69.1749 25.354C68.8789 25.4726 68.5119 25.532 68.0738 25.532ZM68.5533 25.0503C68.8612 25.0503 69.1453 24.9875 69.4058 24.8618C69.6663 24.7292 69.8794 24.5547 70.0452 24.3383C70.211 24.1219 70.2938 23.8775 70.2938 23.6053V22.8409C70.2938 22.7082 70.1695 22.6698 69.9209 22.7257C69.1986 22.8793 68.6362 23.0922 68.2336 23.3644C67.8429 23.6297 67.6475 23.9508 67.6475 24.3278C67.6475 24.8095 67.9495 25.0503 68.5533 25.0503Z" fill="black" style="mix-blend-mode:overlay"/>
<path d="M75.3629 25.532C75.0906 25.532 74.8005 25.511 74.4927 25.4691C74.1848 25.4342 73.9362 25.3889 73.7467 25.333C73.6402 25.2981 73.5869 25.2388 73.5869 25.155L73.5336 23.9822C73.5336 23.8636 73.6106 23.8042 73.7645 23.8042C73.8947 23.8042 73.9835 23.8601 74.0309 23.9718C74.2322 24.4674 74.4749 24.806 74.7591 24.9875C75.0551 25.169 75.4103 25.2597 75.8247 25.2597C76.1681 25.2597 76.4522 25.1829 76.6772 25.0294C76.9022 24.8688 77.0147 24.6489 77.0147 24.3697C77.0147 24.0904 76.8844 23.8426 76.6239 23.6262C76.3634 23.4098 75.9253 23.1725 75.3097 22.9142C74.694 22.6698 74.244 22.4255 73.9599 22.1812C73.6757 21.9299 73.5336 21.6576 73.5336 21.3644C73.5336 20.9665 73.7704 20.6454 74.244 20.4011C74.7176 20.1568 75.3452 20.0346 76.1266 20.0346C76.3634 20.0346 76.5943 20.052 76.8193 20.0869C77.0443 20.1149 77.2455 20.1637 77.4231 20.2335C77.5297 20.2754 77.583 20.3313 77.583 20.4011L77.6185 21.5529C77.6185 21.6576 77.5475 21.71 77.4054 21.71C77.3225 21.71 77.2633 21.696 77.2278 21.6681C77.1923 21.6332 77.1627 21.5913 77.139 21.5424C76.9022 21.0887 76.6654 20.7746 76.4286 20.6C76.1917 20.4185 75.9017 20.3278 75.5583 20.3278C75.2505 20.3278 74.9959 20.3906 74.7946 20.5163C74.5933 20.6419 74.4927 20.799 74.4927 20.9875C74.4927 21.2318 74.617 21.4447 74.8656 21.6262C75.1143 21.8077 75.5642 22.0311 76.2154 22.2964C76.8074 22.5477 77.2515 22.8199 77.5475 23.1131C77.8553 23.3993 78.0092 23.7135 78.0092 24.0555C78.0092 24.5023 77.7665 24.8618 77.2811 25.1341C76.7956 25.3993 76.1562 25.532 75.3629 25.532Z" fill="black" style="mix-blend-mode:overlay"/>
<path d="M80.8264 25.532C80.554 25.532 80.2639 25.511 79.9561 25.4691C79.6482 25.4342 79.3996 25.3889 79.2102 25.333C79.1036 25.2981 79.0503 25.2388 79.0503 25.155L78.997 23.9822C78.997 23.8636 79.074 23.8042 79.2279 23.8042C79.3582 23.8042 79.447 23.8601 79.4943 23.9718C79.6956 24.4674 79.9383 24.806 80.2225 24.9875C80.5185 25.169 80.8737 25.2597 81.2881 25.2597C81.6315 25.2597 81.9157 25.1829 82.1406 25.0294C82.3656 24.8688 82.4781 24.6489 82.4781 24.3697C82.4781 24.0904 82.3478 23.8426 82.0873 23.6262C81.8269 23.4098 81.3888 23.1725 80.7731 22.9142C80.1574 22.6698 79.7074 22.4255 79.4233 22.1812C79.1391 21.9299 78.997 21.6576 78.997 21.3644C78.997 20.9665 79.2338 20.6454 79.7074 20.4011C80.1811 20.1568 80.8086 20.0346 81.59 20.0346C81.8269 20.0346 82.0577 20.052 82.2827 20.0869C82.5077 20.1149 82.709 20.1637 82.8866 20.2335C82.9931 20.2754 83.0464 20.3313 83.0464 20.4011L83.0819 21.5529C83.0819 21.6576 83.0109 21.71 82.8688 21.71C82.7859 21.71 82.7267 21.696 82.6912 21.6681C82.6557 21.6332 82.6261 21.5913 82.6024 21.5424C82.3656 21.0887 82.1288 20.7746 81.892 20.6C81.6552 20.4185 81.3651 20.3278 81.0217 20.3278C80.7139 20.3278 80.4593 20.3906 80.258 20.5163C80.0567 20.6419 79.9561 20.799 79.9561 20.9875C79.9561 21.2318 80.0804 21.4447 80.3291 21.6262C80.5777 21.8077 81.0276 22.0311 81.6788 22.2964C82.2709 22.5477 82.7149 22.8199 83.0109 23.1131C83.3187 23.3993 83.4727 23.7135 83.4727 24.0555C83.4727 24.5023 83.2299 24.8618 82.7445 25.1341C82.259 25.3993 81.6197 25.532 80.8264 25.532Z" fill="black" style="mix-blend-mode:overlay"/>
<defs>
<filter id="filter0_i_1_28" x="0.972656" y="9.68988" width="53.3205" height="28.1992" filterUnits="userSpaceOnUse" color-interpolation-filters="sRGB">
<feFlood flood-opacity="0" result="BackgroundImageFix"/>
<feBlend mode="normal" in="SourceGraphic" in2="BackgroundImageFix" result="shape"/>
<feColorMatrix in="SourceAlpha" type="matrix" values="0 0 0 0 0 0 0 0 0 0 0 0 0 0 0 0 0 0 127 0" result="hardAlpha"/>
<feOffset dy="4"/>
<feGaussianBlur stdDeviation="3.55"/>
<feComposite in2="hardAlpha" operator="arithmetic" k2="-1" k3="1"/>
<feColorMatrix type="matrix" values="0 0 0 0 0.957889 0 0 0 0 0.984269 0 0 0 0 0.986667 0 0 0 0.83 0"/>
<feBlend mode="normal" in2="shape" result="effect1_innerShadow_1_28"/>
</filter>
</defs>
</svg>
