<svg width="266" height="66" viewBox="0 0 266 66" fill="none" xmlns="http://www.w3.org/2000/svg">
<path d="M146.226 33.0356C145.681 26.6842 141.124 22.7222 135.684 23.9485C131.927 24.7953 126.856 29.3665 123.338 36.4094C123.29 36.504 123.25 36.6046 123.22 36.706C119.915 47.7168 128.261 57.9104 126.442 63.811M122.504 41.3926C122.171 26.3749 125.434 -2.33409 141.152 2.97136M92.4459 32.7432C98.3342 18.012 112.572 -2.06641 122.418 35.4701M122.418 43.7403C117.785 33.5224 107.418 16.495 104.753 30.4865M151.153 49.5014C150.209 50.5925 149.089 51.5998 147.981 51.5195C147.019 51.4498 146.094 50.7116 145.356 49.9007C144.781 49.2696 142.812 49.2884 142.219 49.9122C141.648 50.5119 140.944 51.096 140.132 51.5195C139.364 51.9206 137.873 52.2851 136.174 51.2114C132.313 48.7724 133.481 44.7823 135.473 40.3579C138.268 34.1475 143.897 33.604 147.981 33.7583C154.03 33.9869 155.827 36.868 158.406 40.3579C161.108 44.0141 162.447 48.0876 161.227 49.4394C160.373 50.3855 159.622 51.0601 158.406 51.2114C156.851 51.405 155.01 50.862 153.763 49.5788C153.193 48.9926 151.675 48.897 151.153 49.5014ZM149.627 13.8556C149.194 14.501 148.665 15.0212 148.016 15.0424C147.539 15.0581 147.019 14.8529 146.522 14.5552C145.693 14.0581 143.673 14.2757 143.128 14.9175C142.903 15.1814 142.644 15.43 142.35 15.6425C141.868 15.9908 140.858 16.3679 139.437 15.7227C136.208 14.2572 136.328 11.2876 136.963 7.94148C137.855 3.24472 141.82 2.42203 144.797 2.22117C149.205 1.92372 151.024 3.86612 153.519 6.18817C156.132 8.62094 157.836 11.4592 157.201 12.5282C156.756 13.2765 156.336 13.8208 155.486 14.023C154.587 14.2368 153.456 14.1023 152.451 13.58C151.618 13.1469 150.053 13.2201 149.627 13.8556ZM88.6419 46.4773C89.5509 47.2305 90.5452 47.8505 91.381 47.7177C92.0617 47.6096 92.639 47.0957 93.0961 46.4912C93.5937 45.8332 95.5903 45.6786 96.3443 46.2242C96.8453 46.5867 97.4113 46.9192 98.0179 47.1597C98.7354 47.4442 100.057 47.6465 101.313 46.6178C104.166 44.281 103.302 40.9233 100.872 37.3237C97.4615 32.2712 92.6105 32.2118 89.1827 32.6327C84.1064 33.256 82.2766 35.8869 80.6843 39.0211C79.016 42.3048 78.571 45.8443 79.8304 46.9006C80.7118 47.6399 81.4607 48.1568 82.5139 48.1984C83.7544 48.2473 85.0944 47.7514 85.9534 46.757C86.4756 46.1524 87.9835 45.9318 88.6419 46.4773ZM123.17 56.6508C116.648 50.4649 111.67 47.2757 111.326 47.8031C111.294 47.8521 111.295 47.9054 111.301 47.9585C111.752 51.969 114.634 59.0978 122.635 57.6916C123.327 57.57 123.575 57.0349 123.17 56.6508Z" stroke="#070042" stroke-width="4" stroke-linecap="round"/>
<path d="M1.99915 61.811L1.99921 4.19104C1.99921 3.08647 2.89465 2.19104 3.99922 2.19104L57.8535 2.19105C59.529 2.19105 60.4618 4.12785 59.4173 5.4379L30.0491 42.2707C29.0045 43.5807 29.9373 45.5176 31.6128 45.5176L60.0061 45.5175C61.1107 45.5175 62.0061 46.4129 62.0061 47.5175V61.8109C62.0061 62.9155 61.1107 63.8109 60.0061 63.8109L3.99915 63.811C2.89458 63.811 1.99915 62.9155 1.99915 61.811Z" stroke="#070042" stroke-width="4" stroke-linecap="round"/>
<path d="M201.994 2.19105L177.828 2.19099C176.082 2.19099 175.174 4.27009 176.361 5.55031L201.644 32.837C202.376 33.6269 202.351 34.8546 201.587 35.6141L176.683 60.3932C175.418 61.6517 176.309 63.811 178.094 63.811L213.36 63.8109C213.954 63.8109 214.518 63.5463 214.898 63.0889L262.764 5.46904C263.846 4.16582 262.92 2.19105 261.225 2.19105L230.844 2.19098C230.254 2.19098 229.694 2.45173 229.314 2.90341L217.667 16.7466C216.855 17.7117 215.364 17.6935 214.576 16.7088L203.556 2.94128C203.176 2.46708 202.602 2.19105 201.994 2.19105Z" stroke="#070042" stroke-width="4" stroke-linecap="round"/>
</svg>
